HIERARCHY
ROOT Hips
{
	OFFSET 0.000000 0.000000 0.000000
	CHANNELS 6 Xposition Yposition Zposition Zrotation Xrotation Yrotation
	JOINT Spine
	{
		OFFSET 0.793407 13.673625 0.052747
		CHANNELS 3 Zrotation Xrotation Yrotation
		JOINT Chest
		{
			OFFSET -0.130296 17.596075 0.767193
			CHANNELS 3 Zrotation Xrotation Yrotation
			JOINT Neck
			{
				OFFSET -8.090542 2.776628 -1.560437
				CHANNELS 3 Zrotation Xrotation Yrotation
				JOINT Head
				{
					OFFSET 11.938639 18.277111 3.312617
					CHANNELS 3 Zrotation Xrotation Yrotation
					End Site
					{
						OFFSET 0.000000 -5.000000 0.000000
					}
				}
			}
			JOINT LeftShoulder
			{
				OFFSET 1.274989 0.150051 -12.703164
				CHANNELS 3 Zrotation Xrotation Yrotation
				JOINT LeftElbow
				{
					OFFSET 11.745139 -16.131335 -20.256260
					CHANNELS 3 Zrotation Xrotation Yrotation
					JOINT LeftWrist
					{
						OFFSET 19.185541 -12.373389 -4.591042
						CHANNELS 3 Zrotation Xrotation Yrotation
						End Site
						{
							OFFSET 0.000000 -5.000000 0.000000
						}
					}
				}
			}
			JOINT RightShoulder
			{
				OFFSET -3.549781 -2.084157 12.261621
				CHANNELS 3 Zrotation Xrotation Yrotation
				JOINT RightElbow
				{
					OFFSET -9.006273 -16.579529 20.387500
					CHANNELS 3 Zrotation Xrotation Yrotation
					JOINT RightWrist
					{
						OFFSET 2.525963 -17.038967 14.748538
						CHANNELS 3 Zrotation Xrotation Yrotation
						End Site
						{
							OFFSET 0.000000 -5.000000 0.000000
						}
					}
				}
			}
		}
	}
	JOINT LeftHip
	{
		OFFSET 8.049929 -1.859705 -6.472301
		CHANNELS 3 Zrotation Xrotation Yrotation
		JOINT LeftKnee
		{
			OFFSET 0.497996 -50.161986 -6.481667
			CHANNELS 3 Zrotation Xrotation Yrotation
			JOINT LeftAnkle
			{
				OFFSET -14.326972 -34.948386 0.522296
				CHANNELS 3 Zrotation Xrotation Yrotation
				JOINT LeftToe
				{
					OFFSET 13.821765 -7.051480 2.778874
					CHANNELS 3 Zrotation Xrotation Yrotation
					End Site
					{
						OFFSET 0.000000 -5.000000 0.000000
					}
				}
			}
		}
	}
	JOINT RightHip
	{
		OFFSET 5.917073 -1.311102 9.385524
		CHANNELS 3 Zrotation Xrotation Yrotation
		JOINT RightKnee
		{
			OFFSET -2.387914 -50.913889 -0.296862
			CHANNELS 3 Zrotation Xrotation Yrotation
			JOINT RightAnkle
			{
				OFFSET -3.534845 -38.140776 -5.172328
				CHANNELS 3 Zrotation Xrotation Yrotation
				JOINT RightToe
				{
					OFFSET 16.118103 -3.948058 3.058546
					CHANNELS 3 Zrotation Xrotation Yrotation
					End Site
					{
						OFFSET 0.000000 -5.000000 0.000000
					}
				}
			}
		}
	}
}
MOTION
Frames: 10
Frame Time: 0.008333
35.562705 94.863441 -21.333994 5.286609 3.095995 -163.730214 0.241663 -3.690030 -0.030127 7.536918 3.712938 12.575666 -1.336641 -0.106349 0.308199 -0.000000 0.000000 0.000000 -19.970501 -16.429720 14.941615 -5.000000 3.676105 5.000000 -0.000000 0.000000 0.000000 16.784888 12.088265 15.615600 0.320295 8.983244 1.701413 -0.000000 0.000000 0.000000 8.608541 -2.642216 -0.943867 5.000000 5.741126 -3.281015 -12.898227 -3.283864 -15.000359 -0.000000 0.000000 0.000000 8.302384 -1.305381 0.107855 -5.000000 8.876605 4.694574 20.000000 -5.419113 -1.907695 -0.000000 0.000000 0.000000
36.430214 94.940617 -21.381110 5.463069 3.016069 -163.578016 0.359987 -3.841974 -0.032128 7.513230 3.549782 12.171326 -1.317247 0.052495 0.203522 -0.000000 0.000000 0.000000 -19.800036 -16.758291 14.284265 -5.000000 3.572977 5.000000 -0.000000 0.000000 0.000000 16.601447 12.128603 15.310161 0.169279 8.899154 1.559914 -0.000000 0.000000 0.000000 8.612747 -2.807791 -0.933638 5.000000 6.020796 -3.401638 -12.148237 -3.495238 -14.889583 -0.000000 0.000000 0.000000 8.829322 -1.587771 0.146019 -5.000000 9.040102 4.635852 20.000000 -5.478858 -2.207094 -0.000000 0.000000 0.000000
37.271432 95.015034 -21.414337 5.561035 2.901738 -163.232624 0.417924 -3.996996 -0.033297 7.457074 3.317069 11.589788 -1.293126 0.253107 0.071353 -0.000000 0.000000 0.000000 -19.581332 -17.024033 13.606556 -5.000000 3.465170 5.000000 -0.000000 0.000000 0.000000 16.394470 12.203271 14.946757 0.063509 8.761999 1.447366 -0.000000 0.000000 0.000000 8.546637 -3.014292 -0.913458 5.000000 6.322549 -3.529122 -11.415498 -3.770343 -14.948565 -0.000000 0.000000 0.000000 9.176069 -1.902819 0.189076 -5.000000 9.238961 4.546696 20.000000 -5.567301 -2.622288 -0.000000 0.000000 0.000000
38.125473 95.084763 -21.439376 5.721247 2.776458 -162.940646 0.536115 -4.174930 -0.034816 7.309145 3.104995 11.038156 -1.180471 0.411582 -0.050275 -0.000000 0.000000 0.000000 -19.328570 -17.309670 12.844290 -5.000000 3.358574 5.000000 -0.000000 0.000000 0.000000 16.199878 12.259301 14.614858 -0.001097 8.576366 1.361216 -0.000000 0.000000 0.000000 8.530276 -3.240159 -0.897340 5.000000 6.630193 -3.653528 -10.670796 -4.027898 -14.950833 -0.000000 0.000000 0.000000 9.608676 -2.225884 0.236317 -5.000000 9.342568 4.455134 20.000000 -5.618992 -2.978473 -0.000000 0.000000 0.000000
38.980844 95.155652 -21.455769 5.890608 2.622009 -162.643437 0.656039 -4.375871 -0.036016 7.139949 2.897379 10.489129 -1.045326 0.555002 -0.166863 -0.000000 0.000000 0.000000 -19.038086 -17.578181 12.032694 -5.000000 3.233255 5.000000 -0.000000 0.000000 0.000000 15.969928 12.295489 14.243221 -0.013453 8.389618 1.319004 -0.000000 0.000000 0.000000 8.512316 -3.496873 -0.879151 5.000000 6.947749 -3.777066 -9.922299 -4.287209 -14.950935 -0.000000 0.000000 0.000000 10.059848 -2.568206 0.288973 -5.000000 9.377375 4.365664 20.000000 -5.662003 -3.352720 -0.000000 0.000000 0.000000
39.840117 95.232651 -21.462837 6.075537 2.470765 -162.368631 0.774724 -4.559200 -0.036778 7.010340 2.708025 9.990838 -0.922205 0.683143 -0.271866 -0.000000 0.000000 0.000000 -18.742022 -17.866206 11.187446 -5.000000 3.102751 5.000000 -0.000000 0.000000 0.000000 15.685656 12.302084 13.810372 -0.003459 8.165714 1.289467 -0.000000 0.000000 0.000000 8.506329 -3.751465 -0.862329 5.000000 7.271662 -3.897522 -9.167695 -4.538914 -14.925681 -0.000000 0.000000 0.000000 10.553093 -2.913397 0.345635 -5.000000 9.407222 4.309420 20.000000 -5.936018 -4.140247 -0.000000 0.000000 0.000000
40.698140 95.316637 -21.462321 6.251114 2.302744 -162.105001 0.865563 -4.731581 -0.037100 6.965646 2.510035 9.490106 -0.868151 0.805710 -0.360600 -0.000000 0.000000 0.000000 -18.456798 -18.150571 10.363267 -5.000000 2.963725 5.000000 -0.000000 0.000000 0.000000 15.345678 12.307720 13.296000 0.009936 7.957616 1.265629 -0.000000 0.000000 0.000000 8.483705 -4.017029 -0.843244 5.000000 7.602264 -4.015009 -8.409340 -4.786424 -14.885856 -0.000000 0.000000 0.000000 11.054537 -3.273769 0.407733 -5.000000 9.383509 4.239496 19.728543 -5.961434 -4.503242 -0.000000 0.000000 0.000000
41.559179 95.406941 -21.451751 6.427103 2.127510 -161.883107 0.959125 -4.898938 -0.037154 6.979965 2.329116 9.046716 -0.890464 0.929098 -0.435435 -0.000000 0.000000 0.000000 -18.186863 -18.456917 9.537703 -5.000000 2.814519 5.000000 -0.000000 0.000000 0.000000 14.942413 12.289177 12.705431 0.014580 7.757064 1.235799 -0.000000 0.000000 0.000000 8.454927 -4.282608 -0.823679 5.000000 7.933745 -4.126236 -7.644347 -5.018258 -14.804726 -0.000000 0.000000 0.000000 11.575799 -3.657365 0.477069 -5.000000 9.350811 4.181233 19.225893 -5.961346 -4.797556 -0.000000 0.000000 0.000000
42.420892 95.499580 -21.435151 6.582046 1.960557 -161.692310 1.041221 -5.021965 -0.037016 7.014554 2.154329 8.624802 -0.952271 1.033290 -0.490314 -0.000000 0.000000 0.000000 -17.928983 -18.789833 8.698420 -5.000000 2.667215 5.000000 -0.000000 0.000000 0.000000 14.512971 12.237350 12.101409 -0.000867 7.574598 1.192119 -0.000000 0.000000 0.000000 8.405651 -4.528627 -0.803616 5.000000 8.266062 -4.231287 -6.875253 -5.238033 -14.694183 -0.000000 0.000000 0.000000 12.086685 -4.035426 0.548846 -5.000000 9.306913 4.127990 18.724813 -5.931431 -5.029086 -0.000000 0.000000 0.000000
43.268871 95.591188 -21.422857 6.674503 1.828800 -161.477576 1.082357 -5.091542 -0.036864 7.046009 1.973614 8.188540 -1.026623 1.146049 -0.548079 -0.000000 0.000000 0.000000 -17.665622 -19.126412 7.841473 -5.000000 2.520796 5.000000 -0.000000 0.000000 0.000000 14.055290 12.168220 11.470838 -0.027469 7.410143 1.142082 -0.000000 0.000000 0.000000 8.308403 -4.725219 -0.782591 5.000000 8.608930 -4.335519 -6.110397 -5.466801 -14.606553 -0.000000 0.000000 0.000000 12.524731 -4.396385 0.618974 -5.000000 9.336865 4.074802 18.214109 -5.899750 -5.266885 -0.000000 0.000000 0.000000
